<svg width="249" height="251" viewBox="0 0 249 251" fill="none" xmlns="http://www.w3.org/2000/svg">
<path d="M126.5 37.5L164 0H214L249 35V85.5L150.5 184L183.5 217H218V250.5H171.5L128 207L84.5 250.5H34.5L0 216V165L43 122L6 85V34L40 0H89L126.5 37.5ZM234.471 223C236.623 223 238.564 223.515 240.293 224.545C242.061 225.537 243.444 226.91 244.443 228.664C245.481 230.38 246 232.326 246 234.5C246 236.636 245.481 238.581 244.443 240.336C243.444 242.09 242.061 243.483 240.293 244.513C238.564 245.504 236.623 246 234.471 246C232.319 246 230.379 245.504 228.649 244.513C226.92 243.483 225.537 242.09 224.499 240.336C223.5 238.581 223 236.636 223 234.5C223 232.326 223.5 230.38 224.499 228.664C225.537 226.91 226.92 225.537 228.649 224.545C230.379 223.515 232.319 223 234.471 223ZM234.471 224.945C232.703 224.945 231.108 225.365 229.687 226.204C228.265 227.005 227.151 228.131 226.344 229.58C225.537 231.029 225.133 232.669 225.133 234.5C225.133 236.293 225.537 237.914 226.344 239.363C227.151 240.813 228.265 241.957 229.687 242.796C231.108 243.635 232.703 244.055 234.471 244.055C236.315 244.055 237.93 243.655 239.313 242.854C240.735 242.014 241.849 240.869 242.656 239.42C243.463 237.971 243.867 236.331 243.867 234.5C243.867 232.669 243.463 231.029 242.656 229.58C241.849 228.131 240.735 227.005 239.313 226.204C237.93 225.365 236.315 224.945 234.471 224.945ZM234.933 229.064C236.085 229.065 236.988 229.351 237.642 229.923C238.295 230.495 238.621 231.296 238.621 232.326C238.621 232.974 238.429 233.566 238.045 234.1C237.699 234.633 237.219 235.053 236.604 235.358L239.256 239.821H237.123L234.702 235.759H232.627V239.821H230.667V229.064H234.933ZM232.627 234.271H234.645C235.989 234.271 236.662 233.661 236.662 232.44C236.662 231.868 236.488 231.429 236.143 231.124C235.835 230.819 235.355 230.667 234.702 230.667H232.627V234.271ZM31.5 178.5V202.5L47.5 218.5H71.5L106 184L65.5 143.5L31.5 178.5ZM38 48V73L127.75 162.75L217.5 73V48L201.5 32H176.5L126 82.5L75.5 32H54L38 48Z" fill="#CB2026"/>
</svg>
